<svg width="12" height="11" viewBox="0 0 12 11" fill="none" xmlns="http://www.w3.org/2000/svg">
<path d="M2.66853 0C1.96392 0 1.37145 0.485284 1.19343 1.136H0.398846C0.346411 1.1358 0.294454 1.14598 0.245971 1.16595C0.197488 1.18592 0.153439 1.21529 0.116362 1.25237C0.0792847 1.28944 0.0499141 1.33349 0.0299435 1.38198C0.00997282 1.43046 -0.000202912 1.48241 3.06743e-06 1.53485C0.000205719 1.58702 0.0106829 1.63864 0.0308364 1.68677C0.0509899 1.73489 0.080425 1.77857 0.117461 1.81532C0.154497 1.85207 0.198409 1.88116 0.246689 1.90094C0.294969 1.92072 0.346672 1.93079 0.398846 1.93059H1.19188C1.36869 2.5831 1.96264 3.07047 2.66853 3.07047C3.3673 3.07047 3.9563 2.59253 4.13975 1.94999L10.7269 1.93059C10.779 1.93048 10.8307 1.92011 10.8788 1.90005C10.927 1.87999 10.9707 1.85064 11.0076 1.81367C11.0444 1.77671 11.0736 1.73286 11.0934 1.68462C11.1133 1.63637 11.1235 1.58469 11.1234 1.53252C11.1232 1.42742 11.0813 1.32669 11.007 1.25237C10.9327 1.17805 10.832 1.13621 10.7269 1.136L4.15061 1.15541C3.97943 0.494693 3.38027 7.95834e-07 2.66853 0ZM2.66853 0.794582C3.0825 0.794582 3.40957 1.12089 3.40957 1.53485C3.40957 1.94881 3.0825 2.27589 2.66853 2.27589C2.25456 2.27589 1.92826 1.94881 1.92826 1.53485C1.92826 1.12089 2.25456 0.794582 2.66853 0.794582ZM6.91303 3.83945C6.19676 3.83945 5.59399 4.33335 5.4162 4.99563H0.398846C0.346607 4.99542 0.294841 5.00552 0.24651 5.02535C0.19818 5.04518 0.154234 5.07434 0.117187 5.11117C0.080141 5.148 0.050722 5.19177 0.030614 5.23999C0.010506 5.2882 0.000103935 5.3399 3.06743e-06 5.39214C-0.00010038 5.44451 0.0101509 5.49638 0.0301675 5.54478C0.0501841 5.59317 0.0795709 5.63713 0.116638 5.67412C0.153704 5.71111 0.197719 5.74042 0.246151 5.76034C0.294583 5.78026 0.346477 5.79041 0.398846 5.79021H5.41698C5.59533 6.45229 6.19736 6.94716 6.91303 6.94716C7.62869 6.94716 8.23072 6.45229 8.40908 5.79021H10.7269C10.779 5.79011 10.8307 5.77973 10.8788 5.75967C10.927 5.73961 10.9707 5.71026 11.0076 5.6733C11.0444 5.63633 11.0736 5.59248 11.0934 5.54424C11.1133 5.496 11.1235 5.44431 11.1234 5.39214C11.1232 5.28704 11.0813 5.18631 11.007 5.11199C10.9327 5.03767 10.832 4.99583 10.7269 4.99563H8.40985C8.23207 4.33335 7.62929 3.83945 6.91303 3.83945ZM6.91303 4.63403C7.33765 4.63403 7.67346 4.96753 7.67346 5.39214C7.67346 5.81675 7.33765 6.15258 6.91303 6.15258C6.4884 6.15258 6.15259 5.81675 6.15259 5.39214C6.15259 4.96753 6.4884 4.63403 6.91303 4.63403ZM3.82548 7.88995C3.11005 7.88995 2.50724 8.38438 2.32866 9.04613H0.398846C0.346411 9.04593 0.294454 9.05611 0.245971 9.07608C0.197488 9.09605 0.153438 9.12542 0.116361 9.1625C0.0792845 9.19957 0.0499139 9.24362 0.0299433 9.29211C0.00997267 9.34059 -0.000202972 9.39254 3.06743e-06 9.44498C0.000205759 9.49715 0.010683 9.54877 0.0308365 9.5969C0.05099 9.64502 0.0804251 9.6887 0.117461 9.72545C0.154497 9.7622 0.198409 9.79129 0.246689 9.81107C0.294969 9.83085 0.346672 9.84092 0.398846 9.84072H2.32788C2.50533 10.5041 3.10886 11 3.82548 11C4.54208 11 5.14484 10.5041 5.32231 9.84072H10.7269C10.8318 9.84051 10.9325 9.79878 11.0067 9.72463C11.081 9.65048 11.123 9.54994 11.1234 9.44498C11.1236 9.39274 11.1135 9.34097 11.0937 9.29264C11.0738 9.24431 11.0447 9.20037 11.0078 9.16332C10.971 9.12628 10.9272 9.09686 10.879 9.07675C10.8308 9.05664 10.7791 9.04624 10.7269 9.04613H5.32153C5.14293 8.38442 4.54089 7.88995 3.82548 7.88995ZM3.82548 8.68454C4.25011 8.68454 4.58592 9.02037 4.58592 9.44498C4.58592 9.86959 4.25011 10.2054 3.82548 10.2054C3.40086 10.2054 3.06504 9.86959 3.06504 9.44498C3.06504 9.02037 3.40086 8.68454 3.82548 8.68454Z" fill="white"/>
</svg>
